HIERARCHY
ROOT Hips
{
  OFFSET 5.72205e-005 65.662 3.42586
  CHANNELS 6 Xposition Yposition Zposition Zrotation Xrotation Yrotation
  JOINT Chest
  {
    OFFSET 0 8.7983 -4.7612
    CHANNELS 6 Xposition Yposition Zposition Zrotation Xrotation Yrotation
    JOINT Chest2
    {
      OFFSET 0 8.0291 0.4195
      CHANNELS 6 Xposition Yposition Zposition Zrotation Xrotation Yrotation
      JOINT Chest3
      {
        OFFSET 0 9.9351 -2.2114
        CHANNELS 6 Xposition Yposition Zposition Zrotation Xrotation Yrotation
        JOINT Neck
        {
          OFFSET 0 22.3885 -0.4656
          CHANNELS 6 Xposition Yposition Zposition Zrotation Xrotation Yrotation
          JOINT Head
          {
            OFFSET -0.0001 12.643 3.4389
            CHANNELS 6 Xposition Yposition Zposition Zrotation Xrotation Yrotation
            End Site
            {
              OFFSET 0.0001 17.6655 0.5274
            }
          }
        }
        JOINT LeftCollar
        {
          OFFSET 2.2603 21.606 7.4023
          CHANNELS 6 Xposition Yposition Zposition Zrotation Xrotation Yrotation
          JOINT LeftShoulder
          {
            OFFSET 13.5163 -1.1332 -5.0146
            CHANNELS 6 Xposition Yposition Zposition Zrotation Xrotation Yrotation
            JOINT LeftElbow
            {
              OFFSET -0.0995 -28.05 -0.2431
              CHANNELS 6 Xposition Yposition Zposition Zrotation Xrotation Yrotation
              JOINT LeftWrist
              {
                OFFSET 0.0679 -23.3996 -0.1402
                CHANNELS 6 Xposition Yposition Zposition Zrotation Xrotation Yrotation
                JOINT LeftFinger1
                {
                  OFFSET 0.7932 -9.069 2.5189
                  CHANNELS 6 Xposition Yposition Zposition Zrotation Xrotation Yrotation
                  JOINT LeftFinger11
                  {
                    OFFSET -0.8272 -3.3923 0.5977
                    CHANNELS 6 Xposition Yposition Zposition Zrotation Xrotation Yrotation
                    JOINT LeftFinger12
                    {
                      OFFSET -0.5649 -2.3158 0.4082
                      CHANNELS 6 Xposition Yposition Zposition Zrotation Xrotation Yrotation
                      End Site
                      {
                        OFFSET -0.4919 -1.6479 0.2673
                      }
                    }
                  }
                }
                JOINT LeftFinger2
                {
                  OFFSET 0.9159 -9.2044 0.2193
                  CHANNELS 6 Xposition Yposition Zposition Zrotation Xrotation Yrotation
                  JOINT LeftFinger21
                  {
                    OFFSET 0.0117 -4.1944 -0.0248
                    CHANNELS 6 Xposition Yposition Zposition Zrotation Xrotation Yrotation
                    JOINT LeftFinger22
                    {
                      OFFSET 0.0071 -2.3249 -0.0142
                      CHANNELS 6 Xposition Yposition Zposition Zrotation Xrotation Yrotation
                      End Site
                      {
                        OFFSET -0.1475 -2.0882 0.0028
                      }
                    }
                  }
                }
                JOINT LeftFinger3
                {
                  OFFSET 0.6113 -8.7231 -2.0637
                  CHANNELS 6 Xposition Yposition Zposition Zrotation Xrotation Yrotation
                  JOINT LeftFinger31
                  {
                    OFFSET -0.1927 -3.8059 -0.2383
                    CHANNELS 6 Xposition Yposition Zposition Zrotation Xrotation Yrotation
                    JOINT LeftFinger32
                    {
                      OFFSET -0.1091 -2.1688 -0.1362
                      CHANNELS 6 Xposition Yposition Zposition Zrotation Xrotation Yrotation
                      End Site
                      {
                        OFFSET -0.2358 -1.9176 -0.0906
                      }
                    }
                  }
                }
                JOINT LeftFinger4
                {
                  OFFSET -0.6151 -8.0947 -3.5641
                  CHANNELS 6 Xposition Yposition Zposition Zrotation Xrotation Yrotation
                  JOINT LeftFinger41
                  {
                    OFFSET -0.4882 -2.341 -0.6462
                    CHANNELS 6 Xposition Yposition Zposition Zrotation Xrotation Yrotation
                    JOINT LeftFinger42
                    {
                      OFFSET -0.3575 -1.7167 -0.4742
                      CHANNELS 6 Xposition Yposition Zposition Zrotation Xrotation Yrotation
                      End Site
                      {
                        OFFSET -0.4187 -1.5237 -0.3496
                      }
                    }
                  }
                }
                JOINT LeftFinger0
                {
                  OFFSET -1.42 -1.8761 1.4223
                  CHANNELS 6 Xposition Yposition Zposition Zrotation Xrotation Yrotation
                  JOINT LeftFinger01
                  {
                    OFFSET -1.1471 -3.4929 2.6334
                    CHANNELS 6 Xposition Yposition Zposition Zrotation Xrotation Yrotation
                    JOINT LeftFinger02
                    {
                      OFFSET -0.823 -2.3 1.6571
                      CHANNELS 6 Xposition Yposition Zposition Zrotation Xrotation Yrotation
                      End Site
                      {
                        OFFSET -0.5822 -1.6914 1.1582
                      }
                    }
                  }
                }
              }
            }
          }
        }
        JOINT RightCollar
        {
          OFFSET -2.2603 21.606 7.4023
          CHANNELS 6 Xposition Yposition Zposition Zrotation Xrotation Yrotation
          JOINT RightShoulder
          {
            OFFSET -13.5187 -1.1334 -5.0155
            CHANNELS 6 Xposition Yposition Zposition Zrotation Xrotation Yrotation
            JOINT RightElbow
            {
              OFFSET 0.0994 -28.0499 -0.2431
              CHANNELS 6 Xposition Yposition Zposition Zrotation Xrotation Yrotation
              JOINT RightWrist
              {
                OFFSET -0.0679 -23.3996 -0.1402
                CHANNELS 6 Xposition Yposition Zposition Zrotation Xrotation Yrotation
                JOINT RightFinger1
                {
                  OFFSET -0.7932 -9.0691 2.5189
                  CHANNELS 6 Xposition Yposition Zposition Zrotation Xrotation Yrotation
                  JOINT RightFinger11
                  {
                    OFFSET 0.8272 -3.3923 0.5977
                    CHANNELS 6 Xposition Yposition Zposition Zrotation Xrotation Yrotation
                    JOINT RightFinger12
                    {
                      OFFSET 0.565 -2.3158 0.4082
                      CHANNELS 6 Xposition Yposition Zposition Zrotation Xrotation Yrotation
                      End Site
                      {
                        OFFSET 0.4919 -1.6479 0.2673
                      }
                    }
                  }
                }
                JOINT RightFinger2
                {
                  OFFSET -0.916 -9.2044 0.2193
                  CHANNELS 6 Xposition Yposition Zposition Zrotation Xrotation Yrotation
                  JOINT RightFinger21
                  {
                    OFFSET -0.0117 -4.1944 -0.0248
                    CHANNELS 6 Xposition Yposition Zposition Zrotation Xrotation Yrotation
                    JOINT RightFinger22
                    {
                      OFFSET -0.0071 -2.3249 -0.0142
                      CHANNELS 6 Xposition Yposition Zposition Zrotation Xrotation Yrotation
                      End Site
                      {
                        OFFSET 0.1475 -2.0882 0.0028
                      }
                    }
                  }
                }
                JOINT RightFinger3
                {
                  OFFSET -0.6113 -8.7231 -2.0637
                  CHANNELS 6 Xposition Yposition Zposition Zrotation Xrotation Yrotation
                  JOINT RightFinger31
                  {
                    OFFSET 0.1927 -3.8059 -0.2383
                    CHANNELS 6 Xposition Yposition Zposition Zrotation Xrotation Yrotation
                    JOINT RightFinger32
                    {
                      OFFSET 0.1091 -2.1688 -0.1362
                      CHANNELS 6 Xposition Yposition Zposition Zrotation Xrotation Yrotation
                      End Site
                      {
                        OFFSET 0.2358 -1.9176 -0.0906
                      }
                    }
                  }
                }
                JOINT RightFinger4
                {
                  OFFSET 0.6151 -8.0947 -3.564
                  CHANNELS 6 Xposition Yposition Zposition Zrotation Xrotation Yrotation
                  JOINT RightFinger41
                  {
                    OFFSET 0.4882 -2.341 -0.6462
                    CHANNELS 6 Xposition Yposition Zposition Zrotation Xrotation Yrotation
                    JOINT RightFinger42
                    {
                      OFFSET 0.3574 -1.7166 -0.4742
                      CHANNELS 6 Xposition Yposition Zposition Zrotation Xrotation Yrotation
                      End Site
                      {
                        OFFSET 0.4187 -1.5237 -0.3496
                      }
                    }
                  }
                }
                JOINT RightFinger0
                {
                  OFFSET 1.4199 -1.8761 1.4221
                  CHANNELS 6 Xposition Yposition Zposition Zrotation Xrotation Yrotation
                  JOINT RightFinger01
                  {
                    OFFSET 1.1472 -3.4929 2.6336
                    CHANNELS 6 Xposition Yposition Zposition Zrotation Xrotation Yrotation
                    JOINT RightFinger02
                    {
                      OFFSET 0.8229 -2.3 1.6571
                      CHANNELS 6 Xposition Yposition Zposition Zrotation Xrotation Yrotation
                      End Site
                      {
                        OFFSET 0.5822 -1.6914 1.1582
                      }
                    }
                  }
                }
              }
            }
          }
        }
      }
    }
  }
  JOINT RightHip
  {
    OFFSET -9.412 3.9771 -0.7758
    CHANNELS 6 Xposition Yposition Zposition Zrotation Xrotation Yrotation
    JOINT RightKnee
    {
      OFFSET -0.7531 -40.938 0
      CHANNELS 6 Xposition Yposition Zposition Zrotation Xrotation Yrotation
      JOINT RightAnkle
      {
        OFFSET 0 -40.1986 0
        CHANNELS 6 Xposition Yposition Zposition Zrotation Xrotation Yrotation
        JOINT RightToe
        {
          OFFSET 0 -4.4182 9.239
          CHANNELS 6 Xposition Yposition Zposition Zrotation Xrotation Yrotation
          End Site
          {
            OFFSET 0 0 6.1981
          }
        }
      }
    }
  }
  JOINT LeftHip
  {
    OFFSET 9.4119 3.9773 -0.7758
    CHANNELS 6 Xposition Yposition Zposition Zrotation Xrotation Yrotation
    JOINT LeftKnee
    {
      OFFSET 0.7532 -40.9383 0
      CHANNELS 6 Xposition Yposition Zposition Zrotation Xrotation Yrotation
      JOINT LeftAnkle
      {
        OFFSET 0 -40.1986 0
        CHANNELS 6 Xposition Yposition Zposition Zrotation Xrotation Yrotation
        JOINT LeftToe
        {
          OFFSET 0 -4.4182 9.239
          CHANNELS 6 Xposition Yposition Zposition Zrotation Xrotation Yrotation
          End Site
          {
            OFFSET 0 0 6.1981
          }
        }
      }
    }
  }
}
MOTION
Frames:	4
Frame Time:	0.0333333
5.72205e-005 65.662 3.42586 0 0 -0 0 8.7983 -4.7612 0 0 -0 0 8.0291 0.4195 0 0 -0 0 9.9351 -2.2114 0 0 -0 0 22.3885 -0.4656 0 0 -0 -0.0001 12.643 3.4389 0 0 -0 2.2603 21.606 7.4023 0 0 -12.5014 13.5163 -1.1332 -5.0146 88.1196 14.2451 10.6914 -0.0995 -28.05 -0.2431 -0.00160068 -0.00239207 0.000740045 0.0679 -23.3996 -0.1402 -8.4365e-005 7.00714e-005 -9.52055e-007 0.7932 -9.069 2.5189 9.93923e-017 -1.98785e-016 -1.59028e-015 -0.8272 -3.3923 0.5977 9.93923e-017 -5.96354e-016 -1.59028e-015 -0.5649 -2.3158 0.4082 -9.93923e-017 -5.96354e-016 -1.59028e-015 0.9159 -9.2044 0.2193 9.93923e-017 -1.98785e-016 -1.59028e-015 0.0117 -4.1944 -0.0248 -0.0128176 0.00232552 8.52707e-005 0.0071 -2.3249 -0.0142 9.93923e-017 5.96354e-016 -0 0.6113 -8.7231 -2.0637 9.93923e-017 -1.98785e-016 -1.59028e-015 -0.1927 -3.8059 -0.2383 -0.0160551 0.00299681 0.000857156 -0.1091 -2.1688 -0.1362 -2.48481e-016 0 3.18055e-015 -0.6151 -8.0947 -3.5641 9.93923e-017 -1.98785e-016 -1.59028e-015 -0.4882 -2.341 -0.6462 -0.0125865 0.0031206 0.00282719 -0.3575 -1.7167 -0.4742 0 1.98785e-016 -0 -1.42 -1.8761 1.4223 9.93923e-017 -1.98785e-016 -1.59028e-015 -1.1471 -3.4929 2.6334 9.93923e-017 -5.96354e-016 -1.59028e-015 -0.823 -2.3 1.6571 -9.93923e-017 -5.96354e-016 -1.59028e-015 -2.2603 21.606 7.4023 -0.865644 0.16582 7.03859 -13.5187 -1.1334 -5.0155 -88.0329 10.2057 -10.5567 0.0994 -28.0499 -0.2431 0.0015593 -0.00248883 -0.000788628 -0.0679 -23.3996 -0.1402 7.87605e-005 4.10553e-005 1.24965e-005 -0.7932 -9.0691 2.5189 -3.97569e-016 -7.95139e-016 3.18055e-015 0.8272 -3.3923 0.5977 -1.98785e-016 -3.97569e-016 3.18055e-015 0.565 -2.3158 0.4082 -1.98785e-016 0 3.18055e-015 -0.916 -9.2044 0.2193 -3.97569e-016 -7.95139e-016 3.18055e-015 -0.0117 -4.1944 -0.0248 0.0129473 0.00231697 -8.70038e-005 -0.0071 -2.3249 -0.0142 9.93923e-017 -7.95139e-016 1.59028e-015 -0.6113 -8.7231 -2.0637 -3.97569e-016 -7.95139e-016 3.18055e-015 0.1927 -3.8059 -0.2383 0.0163314 0.00303369 -0.000872333 0.1091 -2.1688 -0.1362 3.97569e-016 7.95139e-016 -3.18055e-015 0.6151 -8.0947 -3.564 -3.97569e-016 -7.95139e-016 3.18055e-015 0.4882 -2.341 -0.6462 0.0145763 0.00367772 -0.00326275 0.3574 -1.7166 -0.4742 9.93923e-017 -3.97569e-016 -0 1.4199 -1.8761 1.4221 -3.97569e-016 -7.95139e-016 3.18055e-015 1.1472 -3.4929 2.6336 -1.98785e-016 -3.97569e-016 3.18055e-015 0.8229 -2.3 1.6571 -1.98785e-016 0 3.18055e-015 -9.412 3.9771 -0.7758 3.42482 1.32465 -0.0626183 -0.7531 -40.938 0 0.000117508 0.717283 0.000978199 0 -40.1986 0 -3.4257 -2.04197 -0.0604716 8.88178e-016 -4.4182 9.239 6.47761e-025 0 -0 9.4119 3.9773 -0.7758 -3.42483 1.34017 0.0627307 0.7532 -40.9383 -2.22045e-016 -0.000193936 0.682302 -0.0013703 -8.88179e-016 -40.1986 0 3.42574 -2.02253 0.0595886 -8.88178e-016 -4.4182 9.239 -8.45714e-024 0 -7.40531e-025 
-0.341077 20.065 11.4566 1.30989e-008 -50.3428 1.05852e-008 0 8.7983 -4.7612 -0.0073097 0.0735789 -0.0865617 -5.55112e-017 8.0291 0.4195 -0.0145089 0.147172 -0.173122 0 9.9351 -2.2114 -0.0145089 0.147162 -0.173122 2.77556e-017 22.3885 -0.4656 -0.00731756 5.96055 -0.00247771 -0.0001 12.643 3.4389 -1.2641e-007 -6.92266 -1.18776e-007 2.2603 21.606 7.4023 10.3575 16.0882 -4.05426 13.5163 -1.1332 -5.0146 23.5219 30.4944 26.2823 -0.0995 -28.05 -0.2431 -25.7291 -48.2303 -43.3029 0.0679 -23.3996 -0.1402 -9.85607 3.03695 -21.6348 0.7932 -9.069 2.5189 1.59028e-015 3.18055e-015 7.15625e-015 -0.8272 -3.3923 0.5977 -4.72027e-006 8.21375e-006 9.37811e-006 -0.5649 -2.3158 0.4082 -3.18055e-015 0 -4.77083e-015 0.9159 -9.2044 0.2193 1.59028e-015 3.18055e-015 7.15625e-015 0.0117 -4.1944 -0.0248 -0.0128249 0.00232943 9.56758e-005 0.0071 -2.3249 -0.0142 -1.59028e-015 0 7.95139e-016 0.6113 -8.7231 -2.0637 1.59028e-015 3.18055e-015 7.15625e-015 -0.1927 -3.8059 -0.2383 -0.0160538 0.00300145 0.000866603 -0.1091 -2.1688 -0.1362 -7.95139e-016 0 -0 -0.6151 -8.0947 -3.5641 1.59028e-015 3.18055e-015 7.15625e-015 -0.4882 -2.341 -0.6462 -0.0126032 0.00312121 0.00283301 -0.3575 -1.7167 -0.4742 -6.68651e-006 8.9593e-006 4.46542e-006 -1.42 -1.8761 1.4223 1.59028e-015 3.18055e-015 7.15625e-015 -1.1471 -3.4929 2.6334 -4.72027e-006 8.21375e-006 9.37811e-006 -0.823 -2.3 1.6571 -3.18055e-015 0 -4.77083e-015 -2.2603 21.606 7.4023 -11.7153 16.2732 -1.05049 -13.5187 -1.1334 -5.0155 -25.9834 29.6074 -20.3591 0.0994 -28.0499 -0.2431 25.1803 -49.284 42.6282 -0.0679 -23.3996 -0.1402 9.58891 2.65537 21.9148 -0.7932 -9.0691 2.5189 1.59028e-015 0 -0 0.8272 -3.3923 0.5977 7.95139e-016 3.18055e-015 -1.59028e-015 0.565 -2.3158 0.4082 7.95139e-016 3.18055e-015 3.18055e-015 -0.916 -9.2044 0.2193 1.59028e-015 0 -0 -0.0117 -4.1944 -0.0248 0.0129575 0.00232818 -8.46672e-005 -0.0071 -2.3249 -0.0142 4.17213e-006 -1.93602e-006 -2.30543e-006 -0.6113 -8.7231 -2.0637 1.59028e-015 0 -0 0.1927 -3.8059 -0.2383 0.0163303 0.00304027 -0.000875509 0.1091 -2.1688 -0.1362 1.43125e-014 3.18055e-015 -1.98785e-014 0.6151 -8.0947 -3.564 1.59028e-015 0 -0 0.4882 -2.341 -0.6462 0.0145499 0.00368579 -0.00326186 0.3574 -1.7166 -0.4742 -7.95139e-016 -9.54166e-015 6.36111e-015 1.4199 -1.8761 1.4221 1.59028e-015 0 -0 1.1472 -3.4929 2.6336 7.95139e-016 3.18055e-015 -1.59028e-015 0.8229 -2.3 1.6571 7.95139e-016 3.18055e-015 3.18055e-015 -9.412 3.9771 -0.7758 -41.5374 -12.4096 -7.98266 -0.7531 -40.938 -3.55271e-015 0.838747 36.099 -1.349 7.10543e-015 -40.1986 0 1.49521 9.72672 -3.54794 -3.55271e-015 -4.4182 9.239 7.42901e-007 -1.14616e-006 -3.69294e-007 9.4119 3.9773 -0.7758 36.6974 -35.1074 12.0932 0.7532 -40.9383 0 -4.03696 73.5222 5.55283 3.55271e-015 -40.1986 0 -1.01099 7.35551 3.46373 3.55271e-015 -4.4182 9.239 -3.98644e-006 2.67204e-006 -9.8726e-006 
-1.08209 -4.93222 12.7344 3.54121e-008 -79.9173 8.5859e-009 -2.22045e-016 8.7983 -4.7612 -0.0290898 0.232253 -0.134945 0 8.0291 0.4195 -0.0576322 0.464553 -0.26977 0 9.9351 -2.2114 -0.0576322 0.464544 -0.26977 0 22.3885 -0.4656 0.0138121 9.46192 0.00165491 -0.0001 12.643 3.4389 -7.07926e-008 -10.8521 -1.02514e-007 2.2603 21.606 7.4023 13.8428 24.7243 1.67363 13.5163 -1.1332 -5.0146 -14.3587 36.2335 31.2107 -0.0995 -28.05 -0.2431 -61.3507 -75.093 -89.265 0.0679 -23.3996 -0.1402 -15.4447 4.61255 -34.0163 0.7932 -9.069 2.5189 7.95139e-016 1.59028e-015 3.67752e-015 -0.8272 -3.3923 0.5977 -7.95139e-016 0 3.47873e-015 -0.5649 -2.3158 0.4082 1.02072e-031 -1.59028e-015 3.67752e-015 0.9159 -9.2044 0.2193 7.95139e-016 1.59028e-015 3.67752e-015 0.0117 -4.1944 -0.0248 -0.0128002 0.00231773 7.24256e-005 0.0071 -2.3249 -0.0142 -7.95139e-016 0 7.35503e-015 0.6113 -8.7231 -2.0637 7.95139e-016 1.59028e-015 3.67752e-015 -0.1927 -3.8059 -0.2383 -0.0160654 0.00298633 0.000848319 -0.1091 -2.1688 -0.1362 7.95139e-016 -7.95139e-016 -1.38155e-014 -0.6151 -8.0947 -3.5641 7.95139e-016 1.59028e-015 3.67752e-015 -0.4882 -2.341 -0.6462 -0.0125551 0.00310413 0.00281533 -0.3575 -1.7167 -0.4742 7.95139e-016 -7.95139e-016 4.37326e-015 -1.42 -1.8761 1.4223 7.95139e-016 1.59028e-015 3.67752e-015 -1.1471 -3.4929 2.6334 -7.95139e-016 0 3.47873e-015 -0.823 -2.3 1.6571 1.02072e-031 -1.59028e-015 3.67752e-015 -2.2603 21.606 7.4023 -15.5428 24.9445 -6.55709 -13.5187 -1.1334 -5.0155 10.6565 38.8954 -24.0876 0.0994 -28.0499 -0.2431 62.2522 -76.9344 89.5495 -0.0679 -23.3996 -0.1402 15.1002 3.97152 34.459 -0.7932 -9.0691 2.5189 3.31043e-032 -3.18055e-015 5.96354e-016 0.8272 -3.3923 0.5977 3.18055e-015 -4.77083e-015 -5.76476e-015 0.565 -2.3158 0.4082 3.18055e-015 -4.77083e-015 -1.59028e-015 -0.916 -9.2044 0.2193 3.31043e-032 -3.18055e-015 5.96354e-016 -0.0117 -4.1944 -0.0248 0.0129518 0.00230809 -8.50484e-005 -0.0071 -2.3249 -0.0142 1.10348e-031 3.18055e-015 -1.98785e-015 -0.6113 -8.7231 -2.0637 3.31043e-032 -3.18055e-015 5.96354e-016 0.1927 -3.8059 -0.2383 0.0163469 0.00304322 -0.000867625 0.1091 -2.1688 -0.1362 -1.59028e-015 3.18055e-015 6.16232e-015 0.6151 -8.0947 -3.564 3.31043e-032 -3.18055e-015 5.96354e-016 0.4882 -2.341 -0.6462 0.0146013 0.00367924 -0.00326191 0.3574 -1.7166 -0.4742 -1.59028e-015 4.77083e-015 8.15017e-015 1.4199 -1.8761 1.4221 3.31043e-032 -3.18055e-015 5.96354e-016 1.1472 -3.4929 2.6336 3.18055e-015 -4.77083e-015 -5.76476e-015 0.8229 -2.3 1.6571 3.18055e-015 -4.77083e-015 -1.59028e-015 -9.412 3.9771 -0.7758 -68.5525 -20.0841 -12.7541 -0.7531 -40.938 -1.77636e-015 2.05025 57.2264 -2.84182 3.55271e-015 -40.1986 0 4.26599 15.7049 -5.66377 0 -4.4182 9.239 -4.90692e-008 -9.59055e-007 9.1068e-006 9.4119 3.9773 -0.7758 68.8405 -52.5925 26.0972 0.7532 -40.9383 3.55271e-015 -175.587 65.9789 177.614 0 -40.1986 1.42109e-014 -4.00955 12.8708 5.71109 0 -4.4182 9.239 1.10387e-006 4.97259e-006 -9.37009e-006 
-0.95126 -1.79267 12.6382 -1.36265e-008 -76.8557 3.57449e-008 1.11022e-016 8.7983 -4.7612 -0.0271551 0.522907 -0.128824 -1.11022e-016 8.0291 0.4195 -0.0531377 1.04585 -0.257416 1.11022e-016 9.9351 -2.2114 -0.0531383 1.04587 -0.257419 2.22045e-016 22.3885 -0.4656 0.0796003 9.10652 0.00802055 -0.0001 12.643 3.4389 -1.75076e-007 -10.078 1.45939e-007 2.2603 21.606 7.4023 13.0486 22.8255 0.835806 13.5163 -1.1332 -5.0146 -9.40187 35.491 30.6577 -0.0995 -28.05 -0.2431 -52.375 -72.1745 -79.0578 0.0679 -23.3996 -0.1402 -14.443 4.3108 -32.2018 0.7932 -9.069 2.5189 -1.59028e-015 1.59028e-015 4.47266e-016 -0.8272 -3.3923 0.5977 -7.95139e-016 0 5.96354e-016 -0.5649 -2.3158 0.4082 7.1726e-032 1.59028e-015 -2.5842e-015 0.9159 -9.2044 0.2193 -1.59028e-015 1.59028e-015 4.47266e-016 0.0117 -4.1944 -0.0248 -0.0128321 0.00232468 8.82813e-005 0.0071 -2.3249 -0.0142 1.67484e-006 2.58401e-006 -7.79538e-006 0.6113 -8.7231 -2.0637 -1.59028e-015 1.59028e-015 4.47266e-016 -0.1927 -3.8059 -0.2383 -0.016015 0.00299995 0.000858244 -0.1091 -2.1688 -0.1362 2.38542e-015 1.59028e-015 5.71506e-015 -0.6151 -8.0947 -3.5641 -1.59028e-015 1.59028e-015 4.47266e-016 -0.4882 -2.341 -0.6462 -0.0126173 0.00312338 0.00282856 -0.3575 -1.7167 -0.4742 -5.79325e-032 -4.77083e-015 -6.95746e-016 -1.42 -1.8761 1.4223 -1.59028e-015 1.59028e-015 4.47266e-016 -1.1471 -3.4929 2.6334 -7.95139e-016 0 5.96354e-016 -0.823 -2.3 1.6571 7.1726e-032 1.59028e-015 -2.5842e-015 -2.2603 21.606 7.4023 -14.6673 23.0445 -5.77488 -13.5187 -1.1334 -5.0155 5.78651 37.6688 -23.5449 0.0994 -28.0499 -0.2431 52.2182 -73.9256 78.3519 -0.0679 -23.3996 -0.1402 14.101 3.7045 32.6154 -0.7932 -9.0691 2.5189 2.38542e-015 -4.77083e-015 -1.17283e-014 0.8272 -3.3923 0.5977 2.38542e-015 -4.77083e-015 -7.95139e-015 0.565 -2.3158 0.4082 -1.59028e-015 -4.77083e-015 -8.34896e-015 -0.916 -9.2044 0.2193 2.38542e-015 -4.77083e-015 -1.17283e-014 -0.0117 -4.1944 -0.0248 0.0129619 0.00232137 -8.97145e-005 -0.0071 -2.3249 -0.0142 -7.95139e-016 3.18055e-015 2.78299e-015 -0.6113 -8.7231 -2.0637 2.38542e-015 -4.77083e-015 -1.17283e-014 0.1927 -3.8059 -0.2383 0.0163429 0.00303954 -0.000884582 0.1091 -2.1688 -0.1362 7.95139e-016 -1.59028e-015 -8.34896e-015 0.6151 -8.0947 -3.564 2.38542e-015 -4.77083e-015 -1.17283e-014 0.4882 -2.341 -0.6462 0.0146135 0.00368244 -0.00327436 0.3574 -1.7166 -0.4742 1.59028e-015 0 -7.65321e-015 1.4199 -1.8761 1.4221 2.38542e-015 -4.77083e-015 -1.17283e-014 1.1472 -3.4929 2.6336 2.38542e-015 -4.77083e-015 -7.95139e-015 0.8229 -2.3 1.6571 -1.59028e-015 -4.77083e-015 -8.34896e-015 -9.412 3.9771 -0.7758 -64.8282 -18.5185 -10.8955 -0.7531 -40.938 1.77636e-015 1.84351 53.4861 -2.54661 3.55271e-015 -40.1986 -7.10543e-015 3.47953 15.1533 -5.21197 7.10543e-015 -4.4182 9.239 1.34724e-006 2.06742e-006 4.6043e-006 9.4119 3.9773 -0.7758 64.062 -50.2225 23.528 0.7532 -40.9383 -1.77636e-015 -174.623 70.8545 176.563 0 -40.1986 0 -3.22304 12.3016 5.2516 3.55271e-015 -4.4182 9.239 -1.64129e-006 -2.72203e-007 3.242e-007 
